<svg xmlns="http://www.w3.org/2000/svg" width="463" height="220" fill="none" viewBox="0 0 463 220"><circle cx="10" cy="10" r="10" fill="#000"/><circle cx="50" cy="10" r="10" fill="#000"/><circle cx="90" cy="10" r="10" fill="#000"/><circle cx="130" cy="10" r="10" fill="#000"/><circle cx="170" cy="10" r="10" fill="#000"/><circle cx="210" cy="10" r="10" fill="#000"/><circle cx="10" cy="50" r="10" fill="#000"/><circle cx="50" cy="50" r="10" fill="#000"/><circle cx="90" cy="50" r="10" fill="#000"/><circle cx="130" cy="50" r="10" fill="#000"/><circle cx="170" cy="50" r="10" fill="#000"/><circle cx="210" cy="50" r="10" fill="#000"/><circle cx="10" cy="90" r="10" fill="#000"/><circle cx="50" cy="90" r="10" fill="#000"/><circle cx="90" cy="90" r="10" fill="#000"/><circle cx="130" cy="90" r="10" fill="#000"/><circle cx="170" cy="90" r="10" fill="#000"/><circle cx="210" cy="90" r="10" fill="#000"/><circle cx="10" cy="130" r="10" fill="#000"/><circle cx="50" cy="130" r="10" fill="#000"/><circle cx="90" cy="130" r="10" fill="#000"/><circle cx="130" cy="130" r="10" fill="#000"/><circle cx="170" cy="130" r="10" fill="#000"/><circle cx="210" cy="130" r="10" fill="#000"/><circle cx="10" cy="170" r="10" fill="#000"/><circle cx="50" cy="170" r="10" fill="#000"/><circle cx="90" cy="170" r="10" fill="#000"/><circle cx="130" cy="170" r="10" fill="#000"/><circle cx="170" cy="170" r="10" fill="#000"/><circle cx="210" cy="170" r="10" fill="#000"/><circle cx="10" cy="210" r="10" fill="#000"/><circle cx="50" cy="210" r="10" fill="#000"/><circle cx="90" cy="210" r="10" fill="#000"/><circle cx="130" cy="210" r="10" fill="#000"/><circle cx="170" cy="210" r="10" fill="#000"/><circle cx="210" cy="210" r="10" fill="#000"/><circle cx="253" cy="10" r="10" fill="#000"/><circle cx="293" cy="10" r="10" fill="#000"/><circle cx="333" cy="10" r="10" fill="#000"/><circle cx="373" cy="10" r="10" fill="#000"/><circle cx="413" cy="10" r="10" fill="#000"/><circle cx="453" cy="10" r="10" fill="#000"/><circle cx="253" cy="50" r="10" fill="#000"/><circle cx="293" cy="50" r="10" fill="#000"/><circle cx="333" cy="50" r="10" fill="#000"/><circle cx="373" cy="50" r="10" fill="#000"/><circle cx="413" cy="50" r="10" fill="#000"/><circle cx="453" cy="50" r="10" fill="#000"/><circle cx="253" cy="90" r="10" fill="#000"/><circle cx="293" cy="90" r="10" fill="#000"/><circle cx="333" cy="90" r="10" fill="#000"/><circle cx="373" cy="90" r="10" fill="#000"/><circle cx="413" cy="90" r="10" fill="#000"/><circle cx="453" cy="90" r="10" fill="#000"/><circle cx="253" cy="130" r="10" fill="#000"/><circle cx="293" cy="130" r="10" fill="#000"/><circle cx="333" cy="130" r="10" fill="#000"/><circle cx="373" cy="130" r="10" fill="#000"/><circle cx="413" cy="130" r="10" fill="#000"/><circle cx="453" cy="130" r="10" fill="#000"/><circle cx="253" cy="170" r="10" fill="#000"/><circle cx="293" cy="170" r="10" fill="#000"/><circle cx="333" cy="170" r="10" fill="#000"/><circle cx="373" cy="170" r="10" fill="#000"/><circle cx="413" cy="170" r="10" fill="#000"/><circle cx="453" cy="170" r="10" fill="#000"/><circle cx="253" cy="210" r="10" fill="#000"/><circle cx="293" cy="210" r="10" fill="#000"/><circle cx="333" cy="210" r="10" fill="#000"/><circle cx="373" cy="210" r="10" fill="#000"/><circle cx="413" cy="210" r="10" fill="#000"/><circle cx="453" cy="210" r="10" fill="#000"/></svg>